<mxfile host="65bd71144e">
    <diagram id="GOjo2HlCSaOo0JH9x-lJ" name="Page-1">
        <mxGraphModel dx="2500" dy="1535" grid="1" gridSize="10" guides="1" tooltips="1" connect="1" arrows="1" fold="1" page="1" pageScale="1" pageWidth="850" pageHeight="1100" math="0" shadow="0">
            <root>
                <mxCell id="0"/>
                <mxCell id="1" parent="0"/>
                <mxCell id="16" value="" style="rounded=0;whiteSpace=wrap;html=1;fontSize=18;fillColor=#88AFF2;" vertex="1" parent="1">
                    <mxGeometry width="850" height="1140" as="geometry"/>
                </mxCell>
                <mxCell id="2" value="HOME" style="rounded=0;whiteSpace=wrap;html=1;" vertex="1" parent="1">
                    <mxGeometry x="110" y="10" width="120" height="60" as="geometry"/>
                </mxCell>
                <mxCell id="3" value="EFFECTS" style="rounded=0;whiteSpace=wrap;html=1;" vertex="1" parent="1">
                    <mxGeometry x="240" y="10" width="120" height="60" as="geometry"/>
                </mxCell>
                <mxCell id="4" value="FAQ" style="rounded=0;whiteSpace=wrap;html=1;" vertex="1" parent="1">
                    <mxGeometry x="370" y="10" width="120" height="60" as="geometry"/>
                </mxCell>
                <mxCell id="7" value="&lt;font style=&quot;font-size: 72px;&quot;&gt;PHONE GUIDANCE&lt;/font&gt;" style="rounded=0;whiteSpace=wrap;html=1;" vertex="1" parent="1">
                    <mxGeometry y="80" width="850" height="230" as="geometry"/>
                </mxCell>
                <mxCell id="5" value="LOGO" style="rounded=0;whiteSpace=wrap;html=1;" vertex="1" parent="1">
                    <mxGeometry y="10" width="100" height="90" as="geometry"/>
                </mxCell>
                <mxCell id="8" value="&lt;font style=&quot;font-size: 18px;&quot;&gt;IMG1&lt;/font&gt;" style="rounded=0;whiteSpace=wrap;html=1;fontSize=72;" vertex="1" parent="1">
                    <mxGeometry y="320" width="360" height="170" as="geometry"/>
                </mxCell>
                <mxCell id="9" value="&lt;font style=&quot;font-size: 24px;&quot;&gt;Step to Overcome&lt;/font&gt;" style="rounded=0;whiteSpace=wrap;html=1;fontSize=72;" vertex="1" parent="1">
                    <mxGeometry y="890" width="850" height="170" as="geometry"/>
                </mxCell>
                <mxCell id="10" value="&lt;font style=&quot;font-size: 18px;&quot;&gt;IMG3&lt;/font&gt;" style="rounded=0;whiteSpace=wrap;html=1;fontSize=72;" vertex="1" parent="1">
                    <mxGeometry y="700" width="360" height="170" as="geometry"/>
                </mxCell>
                <mxCell id="11" value="&lt;font style=&quot;font-size: 18px;&quot;&gt;IMG2&lt;/font&gt;" style="rounded=0;whiteSpace=wrap;html=1;fontSize=72;" vertex="1" parent="1">
                    <mxGeometry y="510" width="360" height="170" as="geometry"/>
                </mxCell>
                <mxCell id="12" value="&lt;font style=&quot;font-size: 24px;&quot;&gt;Effects of Phones on Academic Performance&lt;/font&gt;" style="rounded=0;whiteSpace=wrap;html=1;fontSize=72;" vertex="1" parent="1">
                    <mxGeometry x="370" y="320" width="480" height="170" as="geometry"/>
                </mxCell>
                <mxCell id="13" value="&lt;font style=&quot;font-size: 24px;&quot;&gt;Effects of Phones on Well Being&lt;/font&gt;" style="rounded=0;whiteSpace=wrap;html=1;fontSize=72;" vertex="1" parent="1">
                    <mxGeometry x="370" y="510" width="480" height="170" as="geometry"/>
                </mxCell>
                <mxCell id="14" value="&lt;font style=&quot;font-size: 24px;&quot;&gt;Effects of Phones on Attitude&lt;/font&gt;" style="rounded=0;whiteSpace=wrap;html=1;fontSize=72;" vertex="1" parent="1">
                    <mxGeometry x="370" y="700" width="480" height="170" as="geometry"/>
                </mxCell>
                <mxCell id="15" value="&lt;font style=&quot;font-size: 18px;&quot;&gt;FOOTER&lt;/font&gt;" style="rounded=0;whiteSpace=wrap;html=1;fontSize=72;" vertex="1" parent="1">
                    <mxGeometry y="1070" width="850" height="60" as="geometry"/>
                </mxCell>
                <mxCell id="17" value="" style="rounded=0;whiteSpace=wrap;html=1;fontSize=18;fillColor=#88AFF2;" vertex="1" parent="1">
                    <mxGeometry x="5" y="1210" width="850" height="1140" as="geometry"/>
                </mxCell>
                <mxCell id="18" value="HOME" style="rounded=0;whiteSpace=wrap;html=1;" vertex="1" parent="1">
                    <mxGeometry x="115" y="1220" width="120" height="60" as="geometry"/>
                </mxCell>
                <mxCell id="19" value="EFFECTS" style="rounded=0;whiteSpace=wrap;html=1;" vertex="1" parent="1">
                    <mxGeometry x="245" y="1220" width="120" height="60" as="geometry"/>
                </mxCell>
                <mxCell id="20" value="FAQ" style="rounded=0;whiteSpace=wrap;html=1;" vertex="1" parent="1">
                    <mxGeometry x="375" y="1220" width="120" height="60" as="geometry"/>
                </mxCell>
                <mxCell id="21" value="&lt;font style=&quot;font-size: 72px;&quot;&gt;Effects&lt;/font&gt;" style="rounded=0;whiteSpace=wrap;html=1;" vertex="1" parent="1">
                    <mxGeometry x="5" y="1290" width="850" height="230" as="geometry"/>
                </mxCell>
                <mxCell id="22" value="LOGO" style="rounded=0;whiteSpace=wrap;html=1;" vertex="1" parent="1">
                    <mxGeometry x="5" y="1220" width="100" height="90" as="geometry"/>
                </mxCell>
                <mxCell id="23" value="&lt;font style=&quot;font-size: 18px;&quot;&gt;vid1&lt;/font&gt;" style="rounded=0;whiteSpace=wrap;html=1;fontSize=72;" vertex="1" parent="1">
                    <mxGeometry x="5" y="1530" width="360" height="170" as="geometry"/>
                </mxCell>
                <mxCell id="25" value="&lt;font style=&quot;font-size: 18px;&quot;&gt;vid3&lt;/font&gt;" style="rounded=0;whiteSpace=wrap;html=1;fontSize=72;" vertex="1" parent="1">
                    <mxGeometry x="5" y="1910" width="360" height="170" as="geometry"/>
                </mxCell>
                <mxCell id="26" value="&lt;font style=&quot;font-size: 18px;&quot;&gt;vid2&lt;/font&gt;" style="rounded=0;whiteSpace=wrap;html=1;fontSize=72;" vertex="1" parent="1">
                    <mxGeometry x="5" y="1720" width="360" height="170" as="geometry"/>
                </mxCell>
                <mxCell id="27" value="&lt;font style=&quot;font-size: 24px;&quot;&gt;Effects of Phones on Academic Performance&lt;/font&gt;" style="rounded=0;whiteSpace=wrap;html=1;fontSize=72;" vertex="1" parent="1">
                    <mxGeometry x="375" y="1530" width="480" height="170" as="geometry"/>
                </mxCell>
                <mxCell id="28" value="&lt;font style=&quot;font-size: 24px;&quot;&gt;Effects of Phones on Well Being&lt;/font&gt;" style="rounded=0;whiteSpace=wrap;html=1;fontSize=72;" vertex="1" parent="1">
                    <mxGeometry x="375" y="1720" width="480" height="170" as="geometry"/>
                </mxCell>
                <mxCell id="29" value="&lt;font style=&quot;font-size: 24px;&quot;&gt;Effects of Phones on Attitude&lt;/font&gt;" style="rounded=0;whiteSpace=wrap;html=1;fontSize=72;" vertex="1" parent="1">
                    <mxGeometry x="375" y="1910" width="480" height="170" as="geometry"/>
                </mxCell>
                <mxCell id="30" value="&lt;font style=&quot;font-size: 18px;&quot;&gt;FOOTER&lt;/font&gt;" style="rounded=0;whiteSpace=wrap;html=1;fontSize=72;" vertex="1" parent="1">
                    <mxGeometry x="5" y="2280" width="850" height="60" as="geometry"/>
                </mxCell>
                <mxCell id="45" value="&lt;font style=&quot;font-size: 24px;&quot;&gt;img1&lt;/font&gt;" style="rounded=0;whiteSpace=wrap;html=1;fontSize=72;" vertex="1" parent="1">
                    <mxGeometry x="5" y="2100" width="285" height="170" as="geometry"/>
                </mxCell>
                <mxCell id="46" value="&lt;font style=&quot;font-size: 24px;&quot;&gt;img2&lt;/font&gt;" style="rounded=0;whiteSpace=wrap;html=1;fontSize=72;" vertex="1" parent="1">
                    <mxGeometry x="302.5" y="2100" width="265" height="170" as="geometry"/>
                </mxCell>
                <mxCell id="47" value="&lt;font style=&quot;font-size: 24px;&quot;&gt;img3&lt;/font&gt;" style="rounded=0;whiteSpace=wrap;html=1;fontSize=72;" vertex="1" parent="1">
                    <mxGeometry x="580" y="2100" width="275" height="170" as="geometry"/>
                </mxCell>
            </root>
        </mxGraphModel>
    </diagram>
</mxfile>